# xmcd CD database file
# Copyright (C) 1993-1996 Ti Kan
#
# Track frame offsets:
#	150
#	17287
#	32390
#	49242
#	68650
#	82760
#	105017
#	121405
#	137950
#	156015
#
# Disc length: 2315 seconds
#
# Revision: 1
# Processed by: cddbd v1.4b41PL1 Copyright (c) Steve Scherf et al.
# Submitted via: CDValet v3.01 - Copyright (c) 1997 Greg Leichner
#
DISCID=6809090a
DTITLE=Schuyler, Knobloch and Bickhardt - No Easy Horses
DYEAR=1900
DGENRE=
TTITLE0=No Easy Horses
TTITLE1=People Still Fall In Love
TTITLE2=Givers And Takers
TTITLE3=Those Were The Days, These Are The Nights
TTITLE4=Down In The Trenches Of Love
TTITLE5=This Old House
TTITLE6=The Way To Love (Is Through The Heart)
TTITLE7=You Take Me Home
TTITLE8=Living Without You
TTITLE9=American Steel
EXTD=
EXTT0=
EXTT1=
EXTT2=
EXTT3=
EXTT4=
EXTT5=
EXTT6=
EXTT7=
EXTT8=
EXTT9=
PLAYORDER=
